<?xml version="1.0" encoding="UTF-8"?>
<svg width="24px" height="24px" viewBox="0 0 24 24" version="1.1" xmlns="http://www.w3.org/2000/svg"
>
	<!-- Generator: Sketch 42 (36781) - http://www.bohemiancoding.com/sketch -->
	<title>DevLogo Copy</title>
	<desc>Created with Sketch.</desc>
	<defs></defs>
	<g id="Page-1" stroke="none" stroke-width="1" fill="none" fill-rule="evenodd">
		<g id="DevLogo-Copy" transform="translate(1.000000, 1.000000)">
			<path d="M11.0013173,21.5210127 C5.19939506,21.5210127 0.479761728,16.8105063 0.479761728,11.0194937 C0.479761728,5.22834177 5.19939506,0.517974684 11.0013173,0.517974684 C16.803379,0.517974684 21.5228728,5.22834177 21.5228728,11.0194937 C21.5228728,16.8105063 16.803379,21.5210127 11.0013173,21.5210127 L11.0013173,21.5210127 Z M11.0013173,0.0389873418 C4.93558889,0.0389873418 0,4.96531646 0,11.0194937 C0,17.0736709 4.93558889,22 11.0013173,22 C17.0671852,22 22.0030531,17.0736709 22.0030531,11.0194937 C22.0030531,4.96531646 17.0671852,0.0389873418 11.0013173,0.0389873418 L11.0013173,0.0389873418 Z"
				  id="Fill-12" fill="#ffffff"></path>
			<path d="M11.0013173,21.5210127 C5.19939506,21.5210127 0.479761728,16.8105063 0.479761728,11.0194937 C0.479761728,5.22834177 5.19939506,0.517974684 11.0013173,0.517974684 C16.803379,0.517974684 21.5228728,5.22834177 21.5228728,11.0194937 C21.5228728,16.8105063 16.803379,21.5210127 11.0013173,21.5210127 L11.0013173,21.5210127 Z M11.0013173,0.0389873418 C4.93558889,0.0389873418 0,4.96531646 0,11.0194937 C0,17.0736709 4.93558889,22 11.0013173,22 C17.0671852,22 22.0030531,17.0736709 22.0030531,11.0194937 C22.0030531,4.96531646 17.0671852,0.0389873418 11.0013173,0.0389873418 L11.0013173,0.0389873418 Z"
				  id="Stroke-13" stroke="#ffffff"></path>
			<path d="M10.5924247,15.2235696 L9.57472716,15.2235696 C9.44261481,15.2235696 9.33519506,15.1116988 9.33519506,14.9736424 C9.33519506,14.8354404 9.44261481,14.7235696 9.57472716,14.7235696 L10.5924247,14.7235696 C10.724537,14.7235696 10.8316778,14.8354404 10.8316778,14.9736424 C10.8316778,15.1116988 10.724537,15.2235696 10.5924247,15.2235696"
				  id="Fill-15" fill="#ffffff"></path>
			<path d="M10.5924247,15.2235696 L9.57472716,15.2235696 C9.44261481,15.2235696 9.33519506,15.1116988 9.33519506,14.9736424 C9.33519506,14.8354404 9.44261481,14.7235696 9.57472716,14.7235696 L10.5924247,14.7235696 C10.724537,14.7235696 10.8316778,14.8354404 10.8316778,14.9736424 C10.8316778,15.1116988 10.724537,15.2235696 10.5924247,15.2235696 L10.5924247,15.2235696 Z"
				  id="Stroke-16" stroke="#ffffff" stroke-width="0.5"></path>
			<path d="M9.57472716,14.7931899 C9.48111852,14.7931899 9.40494815,14.8693544 9.40494815,14.9629241 C9.40494815,15.0564937 9.48111852,15.132519 9.57472716,15.132519 L10.5924247,15.132519 C10.6858938,15.132519 10.7619247,15.0564937 10.7619247,14.9629241 C10.7619247,14.8693544 10.6858938,14.7931899 10.5924247,14.7931899 L9.57472716,14.7931899 L9.57472716,14.7931899 Z M10.5924247,15.2717595 L9.57472716,15.2717595 C9.40425062,15.2717595 9.26544198,15.1332152 9.26544198,14.9629241 C9.26544198,14.7924937 9.40425062,14.6539494 9.57472716,14.6539494 L10.5924247,14.6539494 C10.7627617,14.6539494 10.9014309,14.7924937 10.9014309,14.9629241 C10.9014309,15.1332152 10.7627617,15.2717595 10.5924247,15.2717595 L10.5924247,15.2717595 Z"
				  id="Fill-17" fill="#ffffff"></path>
			<path d="M9.57472716,14.7931899 C9.48111852,14.7931899 9.40494815,14.8693544 9.40494815,14.9629241 C9.40494815,15.0564937 9.48111852,15.132519 9.57472716,15.132519 L10.5924247,15.132519 C10.6858938,15.132519 10.7619247,15.0564937 10.7619247,14.9629241 C10.7619247,14.8693544 10.6858938,14.7931899 10.5924247,14.7931899 L9.57472716,14.7931899 L9.57472716,14.7931899 Z M10.5924247,15.2717595 L9.57472716,15.2717595 C9.40425062,15.2717595 9.26544198,15.1332152 9.26544198,14.9629241 C9.26544198,14.7924937 9.40425062,14.6539494 9.57472716,14.6539494 L10.5924247,14.6539494 C10.7627617,14.6539494 10.9014309,14.7924937 10.9014309,14.9629241 C10.9014309,15.1332152 10.7627617,15.2717595 10.5924247,15.2717595 L10.5924247,15.2717595 Z"
				  id="Stroke-18" stroke="#ffffff" stroke-width="0.5"></path>
			<path d="M10.5924247,15.2021392 L3.52713457,15.2021392 C3.44133827,15.2021392 3.36209877,15.1564684 3.31954938,15.0825316 C3.27672099,15.0085949 3.27672099,14.9173924 3.31954938,14.8433165 L9.14058395,4.77943038 C9.1845284,4.70410127 9.26293086,4.6588481 9.35291235,4.65982278 C9.4401037,4.66149367 9.51962222,4.71050633 9.56021852,4.78736709 L11.8214741,9.06734177 C11.8834148,9.1843038 11.8383543,9.32897468 11.7214481,9.39051899 C11.6044025,9.45220253 11.4591765,9.40722785 11.3975148,9.2905443 L9.33868272,5.39389873 L3.94216543,14.7235696 L10.5924247,14.7235696 C10.724537,14.7235696 10.8316778,14.8306456 10.8316778,14.9629241 C10.8316778,15.0950633 10.724537,15.2021392 10.5924247,15.2021392"
				  id="Fill-19" fill="#ffffff"></path>
			<path d="M10.5924247,15.2021392 L3.52713457,15.2021392 C3.44133827,15.2021392 3.36209877,15.1564684 3.31954938,15.0825316 C3.27672099,15.0085949 3.27672099,14.9173924 3.31954938,14.8433165 L9.14058395,4.77943038 C9.1845284,4.70410127 9.26293086,4.6588481 9.35291235,4.65982278 C9.4401037,4.66149367 9.51962222,4.71050633 9.56021852,4.78736709 L11.8214741,9.06734177 C11.8834148,9.1843038 11.8383543,9.32897468 11.7214481,9.39051899 C11.6044025,9.45220253 11.4591765,9.40722785 11.3975148,9.2905443 L9.33868272,5.39389873 L3.94216543,14.7235696 L10.5924247,14.7235696 C10.724537,14.7235696 10.8316778,14.8306456 10.8316778,14.9629241 C10.8316778,15.0950633 10.724537,15.2021392 10.5924247,15.2021392 L10.5924247,15.2021392 Z"
				  id="Stroke-20" stroke="#ffffff" stroke-width="0.5"></path>
			<path d="M9.35165679,4.72944304 C9.28664691,4.72944304 9.23237901,4.76049367 9.20099012,4.81437975 L3.37995556,14.8781266 C3.34968272,14.930481 3.34968272,14.9953671 3.37995556,15.0477215 C3.41008889,15.1000759 3.46644938,15.132519 3.52713457,15.132519 L10.5924247,15.132519 C10.6858938,15.132519 10.7619247,15.0564937 10.7619247,14.9629241 C10.7619247,14.8693544 10.6858938,14.7931899 10.5924247,14.7931899 L3.82135309,14.7931899 L9.34147284,5.24992405 L11.459316,9.25810127 C11.5015864,9.33844304 11.6077506,9.37172152 11.6889432,9.32897468 C11.7718099,9.28525316 11.8036173,9.18249367 11.7598123,9.09978481 L9.49855679,4.81994937 C9.46967901,4.76522785 9.41345802,4.7306962 9.35165679,4.72944304 L9.35165679,4.72944304 Z M10.5924247,15.2717595 L3.52713457,15.2717595 C3.41664568,15.2717595 3.31382963,15.2125823 3.2590037,15.1172025 C3.20403827,15.0221013 3.20403827,14.9037468 3.25914321,14.8085063 L9.08017778,4.74462025 C9.13653827,4.6478481 9.23726173,4.59020253 9.3497037,4.59020253 C9.46688889,4.59243038 9.56956543,4.65550633 9.62201975,4.75506329 L11.8832753,9.03475949 C11.9627938,9.18541772 11.9048988,9.37255696 11.7540926,9.45206329 C11.6074716,9.52920253 11.412721,9.46877215 11.3358531,9.32298734 L9.33589259,5.53787342 L4.06297778,14.6539494 L10.5924247,14.6539494 C10.7627617,14.6539494 10.9014309,14.7924937 10.9014309,14.9629241 C10.9014309,15.1332152 10.7627617,15.2717595 10.5924247,15.2717595 L10.5924247,15.2717595 Z"
				  id="Fill-21" fill="#ffffff"></path>
			<path d="M9.35165679,4.72944304 C9.28664691,4.72944304 9.23237901,4.76049367 9.20099012,4.81437975 L3.37995556,14.8781266 C3.34968272,14.930481 3.34968272,14.9953671 3.37995556,15.0477215 C3.41008889,15.1000759 3.46644938,15.132519 3.52713457,15.132519 L10.5924247,15.132519 C10.6858938,15.132519 10.7619247,15.0564937 10.7619247,14.9629241 C10.7619247,14.8693544 10.6858938,14.7931899 10.5924247,14.7931899 L3.82135309,14.7931899 L9.34147284,5.24992405 L11.459316,9.25810127 C11.5015864,9.33844304 11.6077506,9.37172152 11.6889432,9.32897468 C11.7718099,9.28525316 11.8036173,9.18249367 11.7598123,9.09978481 L9.49855679,4.81994937 C9.46967901,4.76522785 9.41345802,4.7306962 9.35165679,4.72944304 L9.35165679,4.72944304 Z M10.5924247,15.2717595 L3.52713457,15.2717595 C3.41664568,15.2717595 3.31382963,15.2125823 3.2590037,15.1172025 C3.20403827,15.0221013 3.20403827,14.9037468 3.25914321,14.8085063 L9.08017778,4.74462025 C9.13653827,4.6478481 9.23726173,4.59020253 9.3497037,4.59020253 C9.46688889,4.59243038 9.56956543,4.65550633 9.62201975,4.75506329 L11.8832753,9.03475949 C11.9627938,9.18541772 11.9048988,9.37255696 11.7540926,9.45206329 C11.6074716,9.52920253 11.412721,9.46877215 11.3358531,9.32298734 L9.33589259,5.53787342 L4.06297778,14.6539494 L10.5924247,14.6539494 C10.7627617,14.6539494 10.9014309,14.7924937 10.9014309,14.9629241 C10.9014309,15.1332152 10.7627617,15.2717595 10.5924247,15.2717595 L10.5924247,15.2717595 Z"
				  id="Stroke-22" stroke="#ffffff" stroke-width="0.5"></path>
			<path d="M10.5918667,15.2021392 C10.5512704,15.2021392 10.510116,15.1918354 10.4724494,15.1699747 C10.3577753,15.1039747 10.3182951,14.9576329 10.3845605,14.8433165 L14.3260284,8.02874684 C14.3691358,7.95481013 14.4480963,7.909 14.5337531,7.909 C14.6195494,7.909 14.6987889,7.95481013 14.7413383,8.02874684 L18.6829457,14.8433165 C18.7259136,14.9173924 18.7259136,15.0085949 18.6829457,15.0825316 C18.6403963,15.1564684 18.5611568,15.2021392 18.4756395,15.2021392 L13.1512469,15.2021392 C13.018716,15.2021392 12.9114358,15.0950633 12.9114358,14.9629241 C12.9114358,14.8306456 13.018716,14.7235696 13.1512469,14.7235696 L18.0606086,14.7235696 L14.5337531,8.62678481 L10.7997309,15.0825316 C10.7556469,15.1592532 10.6747333,15.2021392 10.5918667,15.2021392"
				  id="Fill-23" fill="#ffffff"></path>
			<path d="M10.4724494,15.1699747 C10.3577753,15.1039747 10.3182951,14.9576329 10.3845605,14.8433165 L14.3260284,8.02874684 C14.3691358,7.95481013 14.4480963,7.909 14.5337531,7.909 C14.6195494,7.909 14.6987889,7.95481013 14.7413383,8.02874684 L18.6829457,14.8433165 C18.7259136,14.9173924 18.7259136,15.0085949 18.6829457,15.0825316 C18.6403963,15.1564684 18.5611568,15.2021392 18.4756395,15.2021392 L13.1512469,15.2021392 C13.018716,15.2021392 12.9114358,15.0950633 12.9114358,14.9629241 C12.9114358,14.8306456 13.018716,14.7235696 13.1512469,14.7235696 L18.0606086,14.7235696 L14.5337531,8.62678481 L10.7997309,15.0825316 C10.7556469,15.1592532 10.6747333,15.2021392 10.5918667,15.2021392 C10.5512704,15.2021392 10.510116,15.1918354 10.4724494,15.1699747 Z"
				  id="Stroke-24" stroke="#ffffff" stroke-width="0.5"></path>
			<path d="M13.1512469,14.7931899 C13.0574988,14.7931899 12.9811889,14.8693544 12.9811889,14.9629241 C12.9811889,15.0564937 13.0574988,15.132519 13.1512469,15.132519 L18.4756395,15.132519 C18.5361852,15.132519 18.5924062,15.1000759 18.6224,15.0478608 C18.6530914,14.9953671 18.6530914,14.930481 18.622679,14.8782658 L14.6809321,8.06355696 C14.6209444,7.95898734 14.4476778,7.95843038 14.3862951,8.0636962 L10.4449667,14.8781266 C10.4222272,14.9173924 10.4162284,14.9629241 10.4279469,15.0066456 C10.4396654,15.0503671 10.4679852,15.0869873 10.5073259,15.1096835 C10.5864259,15.1557722 10.6945432,15.125557 10.7391852,15.0478608 L14.5337531,8.4875443 L18.181421,14.7931899 L13.1512469,14.7931899 L13.1512469,14.7931899 Z M18.4756395,15.2717595 L13.1512469,15.2717595 C12.9804914,15.2717595 12.8416827,15.1332152 12.8416827,14.9629241 C12.8416827,14.7924937 12.9804914,14.6539494 13.1512469,14.6539494 L17.9397963,14.6539494 L14.5337531,8.76602532 L10.860137,15.1173418 C10.7783864,15.2593671 10.5798691,15.3129747 10.4372938,15.2301266 C10.3660062,15.1890506 10.3146679,15.1224937 10.293184,15.0427089 C10.2718395,14.9630633 10.282721,14.8797975 10.3240148,14.8085063 L14.2656222,7.99393671 C14.3211457,7.89855696 14.4238222,7.83937975 14.5337531,7.83937975 C14.644242,7.83937975 14.747058,7.8986962 14.801884,7.99407595 L18.7433519,14.8085063 C18.7987358,14.9037468 18.7987358,15.0221013 18.7432123,15.117481 C18.6886654,15.2125823 18.5859889,15.2717595 18.4756395,15.2717595 L18.4756395,15.2717595 Z"
				  id="Fill-25" fill="#ffffff"></path>
			<path d="M13.1512469,14.7931899 C13.0574988,14.7931899 12.9811889,14.8693544 12.9811889,14.9629241 C12.9811889,15.0564937 13.0574988,15.132519 13.1512469,15.132519 L18.4756395,15.132519 C18.5361852,15.132519 18.5924062,15.1000759 18.6224,15.0478608 C18.6530914,14.9953671 18.6530914,14.930481 18.622679,14.8782658 L14.6809321,8.06355696 C14.6209444,7.95898734 14.4476778,7.95843038 14.3862951,8.0636962 L10.4449667,14.8781266 C10.4222272,14.9173924 10.4162284,14.9629241 10.4279469,15.0066456 C10.4396654,15.0503671 10.4679852,15.0869873 10.5073259,15.1096835 C10.5864259,15.1557722 10.6945432,15.125557 10.7391852,15.0478608 L14.5337531,8.4875443 L18.181421,14.7931899 L13.1512469,14.7931899 L13.1512469,14.7931899 Z M18.4756395,15.2717595 L13.1512469,15.2717595 C12.9804914,15.2717595 12.8416827,15.1332152 12.8416827,14.9629241 C12.8416827,14.7924937 12.9804914,14.6539494 13.1512469,14.6539494 L17.9397963,14.6539494 L14.5337531,8.76602532 L10.860137,15.1173418 C10.7783864,15.2593671 10.5798691,15.3129747 10.4372938,15.2301266 C10.3660062,15.1890506 10.3146679,15.1224937 10.293184,15.0427089 C10.2718395,14.9630633 10.282721,14.8797975 10.3240148,14.8085063 L14.2656222,7.99393671 C14.3211457,7.89855696 14.4238222,7.83937975 14.5337531,7.83937975 C14.644242,7.83937975 14.747058,7.8986962 14.801884,7.99407595 L18.7433519,14.8085063 C18.7987358,14.9037468 18.7987358,15.0221013 18.7432123,15.117481 C18.6886654,15.2125823 18.5859889,15.2717595 18.4756395,15.2717595 L18.4756395,15.2717595 Z"
				  id="Stroke-26" stroke="#ffffff" stroke-width="0.5"></path>
		</g>
	</g>
</svg>